# xmcd
#
# Track frame offsets: 
#        183
#        12090
#        24583
#        33428
#        44323
#        55385
#        67430
#        80558
#        97750
#        108723
#        118400
#        130768
#
# Disc length: 1865 seconds
#
# Revision: 2
# Processed by: cddbd v1.5.2PL0 Copyright (c) Steve Scherf et al.
# Submitted via: ExactAudioCopy v0.99pb5
#
DISCID=a607470c
DTITLE=Various Artist - COUNTRY AND WESTERN - VOLUME THREE
DYEAR=1987
DGENRE=Country
TTITLE0=DOLLY PARTON - Letter To Heaven
TTITLE1=KENNY ROGERS - Ruben James
TTITLE2=CARL PERKINS - This Old House
TTITLE3=WAYLON JENNINGS - Dream Baby
TTITLE4=STONEWALL JACKSON - Things To Talk About
TTITLE5=WILLIE NELSON - I Cant Find The Time
TTITLE6=JOHNNY PAYCHECK - Talk About Me
TTITLE7=KENNY ROGERS - Somethings Burnin'
TTITLE8=PATSY CLINE - Honky Tonk Merry Go Round
TTITLE9=CHARLIE RICH - Whirlwind
TTITLE10=LYN ANDERSON - Stand By Your Man
TTITLE11=JOHNNY PAYCHECK - Mr Lovemaker
EXTD=
EXTT0=
EXTT1=
EXTT2=
EXTT3=
EXTT4=
EXTT5=
EXTT6=
EXTT7=
EXTT8=
EXTT9=
EXTT10=
EXTT11=
PLAYORDER=
